<svg width="42" height="42" viewBox="0 0 42 42" fill="none" xmlns="http://www.w3.org/2000/svg">
<g clip-path="url(#clip0_7674_2506)">
<path d="M39.1275 22.2055H25.0779C23.4929 22.2055 22.2055 23.4929 22.2055 25.0779V39.1275C22.2055 40.7126 23.4929 42 25.0779 42H39.1275C40.7126 42 42 40.7126 42 39.1275V25.0779C42 23.4929 40.7126 22.2055 39.1275 22.2055ZM35.4663 35.8979C35.4663 36.1807 35.2381 36.4114 34.9528 36.4114C33.8664 36.4114 30.2275 36.4064 29.3543 36.4064C29.0468 36.4064 28.7789 36.1509 28.7789 35.826V28.377C28.7789 28.0769 29.012 27.8015 29.3543 27.8015C30.2076 27.8015 33.7647 27.7966 34.8363 27.7966C35.1215 27.7966 35.3497 28.0273 35.3497 28.31V28.7441C35.3497 29.0269 35.1215 29.2576 34.8363 29.2576H30.3589V31.3462L34.7296 31.3412C35.0124 31.3412 35.2406 31.5669 35.2431 31.8497L35.248 32.2863C35.2505 32.5716 35.0198 32.8047 34.7346 32.8047L30.3589 32.8097V34.9479H34.9528C35.2356 34.9479 35.4663 35.1786 35.4663 35.4614V35.8979Z" fill="white"/>
<path d="M39.1275 0H25.0779C23.4929 0 22.2055 1.28738 22.2055 2.87243V16.922C22.2055 18.5071 23.4929 19.7945 25.0779 19.7945H39.1275C40.7126 19.7945 42 18.5071 42 16.922V2.87243C42 1.28738 40.7126 0 39.1275 0ZM36.3519 11.7105C36.1261 12.2661 35.8037 12.7548 35.3845 13.174C34.9727 13.5858 34.489 13.9033 33.9334 14.129C33.3752 14.3572 32.77 14.4688 32.1226 14.4688C31.4752 14.4688 30.855 14.3572 30.287 14.129C29.7314 13.9033 29.2427 13.5858 28.8235 13.174C28.4043 12.7548 28.0794 12.2661 27.8437 11.7105C27.6155 11.1499 27.5039 10.5446 27.5039 9.89724C27.5039 9.24982 27.6155 8.63218 27.8437 8.07406C28.0794 7.51595 28.4068 7.02977 28.826 6.62048C29.2452 6.2112 29.7339 5.89121 30.2895 5.66549C30.8575 5.43728 31.4677 5.32565 32.1251 5.32565C32.7824 5.32565 33.3777 5.43728 33.9358 5.66549C34.4915 5.89121 34.9777 6.20872 35.3869 6.62048C35.8061 7.03225 36.1286 7.51595 36.3543 8.07158C36.59 8.63218 36.7066 9.2399 36.7066 9.89724C36.7066 10.5546 36.59 11.1499 36.3543 11.7105H36.3519Z" fill="white"/>
<path d="M34.6378 8.36426C34.3898 7.92273 34.0499 7.57298 33.6159 7.31748C33.1843 7.06447 32.6906 6.93549 32.1226 6.93549C31.5546 6.93549 31.056 7.06447 30.6169 7.31997C30.1729 7.57546 29.8256 7.92521 29.5701 8.36674C29.3171 8.80579 29.1857 9.3143 29.1857 9.89722C29.1857 10.4801 29.3147 10.9812 29.5701 11.4277C29.8256 11.8692 30.1754 12.219 30.6169 12.4745C31.056 12.73 31.557 12.8589 32.1226 12.8589C32.6881 12.8589 33.1843 12.73 33.6159 12.4769C34.0499 12.2215 34.3898 11.8742 34.6378 11.4302C34.8933 10.9812 35.0223 10.4727 35.0223 9.89722C35.0223 9.32174 34.8933 8.80579 34.6378 8.36674V8.36426Z" fill="white"/>
<path d="M16.922 0H2.87243C1.28738 0 0 1.28738 0 2.87243V16.922C0 18.5071 1.28738 19.7945 2.87243 19.7945H16.922C18.5071 19.7945 19.7945 18.5071 19.7945 16.922V2.87243C19.7945 1.28738 18.5071 0 16.922 0ZM13.8586 12.6407C13.5039 13.1244 13.0797 13.5287 12.5836 13.8487C11.9263 14.2679 11.0953 14.4688 10.1031 14.4688C9.2151 14.4688 8.42629 14.2753 7.74167 13.8809H7.73919C7.06697 13.4791 6.54111 12.9309 6.16655 12.2413C5.79199 11.5418 5.60595 10.7605 5.60595 9.89724C5.60595 9.24238 5.71758 8.63218 5.94578 8.07406C6.17151 7.51843 6.48405 7.03473 6.88838 6.62296C7.29766 6.2112 7.77392 5.89369 8.31467 5.66549C8.86534 5.43728 9.46315 5.32565 10.1031 5.32565C11.0953 5.32565 11.9263 5.53154 12.5836 5.95819C13.0797 6.27321 13.5039 6.67257 13.8586 7.15379C14.1116 7.4961 13.9132 7.95004 13.5361 8.06166L13.0946 8.19312C12.8416 8.26754 12.5811 8.1708 12.4224 7.9798C12.1074 7.5978 11.7799 7.34479 11.4451 7.20588C11.0408 7.02729 10.5967 6.93551 10.1056 6.93551C9.56733 6.93551 9.08859 7.06449 8.66442 7.3175C8.2477 7.573 7.91283 7.92027 7.66478 8.36428C7.41921 8.80333 7.2927 9.31184 7.2927 9.89724C7.2927 10.4826 7.41921 10.9812 7.66478 11.4302C7.91283 11.8742 8.2477 12.2215 8.66442 12.477C9.08611 12.73 9.56485 12.859 10.1056 12.859C10.5967 12.859 11.0432 12.7721 11.4476 12.601C11.7849 12.4546 12.1098 12.1967 12.4274 11.8147C12.5861 11.6237 12.8466 11.5269 13.0996 11.6013L13.5411 11.7328C13.9181 11.8444 14.1166 12.2959 13.8636 12.6407H13.8586Z" fill="white"/>
<path d="M12.0106 30.5301C11.7626 30.096 11.4302 29.776 11.011 29.5627C10.5943 29.3444 10.123 29.2353 9.59711 29.2353H7.66479V34.9727H9.58471C10.1155 34.9727 10.5868 34.871 11.0036 34.6701C11.4252 34.4642 11.7601 34.1541 12.0156 33.7374C12.2637 33.3306 12.3976 32.7973 12.3976 32.1226C12.3976 31.4479 12.2661 30.9493 12.0156 30.5326L12.0106 30.5301Z" fill="white"/>
<path d="M16.922 22.2055H2.87243C1.28738 22.2055 0 23.4929 0 25.0779V39.1275C0 40.7126 1.28738 42 2.87243 42H16.922C18.5071 42 19.7945 40.7126 19.7945 39.1275V25.0779C19.7945 23.4929 18.5071 22.2055 16.922 22.2055ZM13.5113 34.5336C13.1269 35.191 12.5935 35.6945 11.9189 36.0468C11.2466 36.3891 10.4851 36.5553 9.64422 36.5553H6.69242C6.3129 36.5553 6.00531 36.2477 6.00531 35.8682V28.3398C6.00531 27.9603 6.3129 27.6502 6.69242 27.6502H9.65663C10.5 27.6502 11.2615 27.8263 11.9362 28.186C12.6109 28.5457 13.1417 29.0641 13.5262 29.7363C13.9132 30.4061 14.1017 31.2048 14.1017 32.1226C14.1017 33.0404 13.9082 33.8639 13.5113 34.5336Z" fill="white"/>
</g>
<defs>
<clipPath id="clip0_7674_2506">
<rect width="42" height="42" fill="white"/>
</clipPath>
</defs>
</svg>
